<svg xmlns="http://www.w3.org/2000/svg" >
	<symbol id="gLogo_g" viewBox="0 0 30 30"><title>gskinner</title><desc>Navigate to the gskinner home page</desc><path d="M0 0v30h12c-.3-.3-.6-.6-.8-.9-.6-.9-1-2-1.2-3.1h6.5c.3.7.8 1.3 1.4 1.6.6.3 1.2.4 1.9.4 1.6 0 2.7-.5 3.5-1.4.7-1 1.1-2.2 1.1-3.7v-.6h-.1c-.5.9-1.2 1.6-2.2 2-1 .5-3.1.7-4.1.7-1.4 0-1.5-.3-2.7-.8-1.2-.5-2.2-1.2-3-2.1-.8-.9-1.5-1.9-1.9-3.1-.5-1.2-.7-2.5-.7-3.9s.2-2.7.7-3.9c.5-1.2 1.1-2.3 1.9-3.2.8-.9 1.8-1.6 3-2.2 1.1-.5 2.4-.8 3.8-.8 1 0 1.9.2 2.9.5 1 .4 1.7 1 2.3 1.8h.1v-1.3h5.6v-6h-30zM23.2 11.7c-.4-.4-.9-.8-1.4-1-.6-.2-1.2-.4-1.9-.4s-1.3.1-1.8.4c-.6.2-1 .6-1.4 1-.4.4-.7.9-.9 1.5-.2.6-.3 1.2-.3 1.8 0 .7.1 1.3.3 1.9.2.6.5 1.1.9 1.5.4.4.9.8 1.4 1 .6.3 1.2.4 1.8.4.7 0 1.3-.1 1.9-.4.6-.2 1-.6 1.5-1 .4-.4.7-.9.9-1.5.2-.6.3-1.2.3-1.9s-.1-1.3-.3-1.9c-.4-.5-.7-1-1-1.4z"></path></symbol>

	<symbol id="gLogo_skinner" viewBox="0 0 112 30"><path d="M42 5h6v2.6c.6-.9 1.8-2.6 5.1-2.6 6.3 0 6.9 4.5 6.9 7v13h-5.5v-10.9c0-2.1-.4-3.9-2.9-3.9-2.8 0-3.5 2-3.5 3.9v10.9h-6v-20zM62 5h5.2v2.6c.6-.9 2.4-2.6 5.8-2.6 6.3 0 7 5.1 7 7.6v12.4h-5.6v-10.9c0-2.1-.4-3.9-2.9-3.9-2.8 0-3.9 2-3.9 3.9v10.9h-5.6v-20zM101.2 5h5.3v2.7c.5-1 2.2-2.7 5.5-2.7v5.6h-.2c-2.9 0-4.9 1-4.9 3.7v10.7h-5.6v-20zM40 5h-13l-5 6v-11h-5.8v25h5.8v-7l5 7h13v-20zm-6 20l-8.9-10 8.9-10v20zM93.5 18.8c-.7.8-1.6 1.4-3.2 1.4-2.2 0-4.1-1.3-4.3-3.3h14c.4-3.5-.3-6.5-2.6-9-1.8-1.8-4.3-2.9-7.2-2.9-5.7 0-9.8 4.8-9.8 10 0 5.6 4.6 9.9 9.9 9.9 1.9 0 3.8-.6 5.3-1.7 1.5-1 2.8-2.5 3.7-4.5h-5.8zm-3.2-9.1c2.9 0 4.1 2.1 4.2 3h-8.4c.1-.9 1.2-3 4.2-3zM8.7 12.6c-1.5-.4-2.9-1-2.9-1.9 0-.5.4-1.3 1.6-1.3 1.7 0 1.7 1 1.8 1.4h5.5c-.5-4.9-4.7-5.8-7.2-5.8-3.9 0-7.3 2.4-7.3 6.3 0 2.5 2 4.1 4.5 4.9 3.6 1.4 5 1.6 5 2.8 0 .9-1 1.5-2 1.5-.2 0-1.9.2-2.1-1.5h-5.6c.5 4.9 4.8 6 7.6 6 4.2 0 7.6-2.4 7.6-6.5.1-4.1-3.3-5-6.5-5.9zM34 0h6v2.9h-6z"></path></symbol>

	<symbol id="icon-email" viewBox="0 0 30 20"><path d="M2 1.3v17.3h26v-17.3h-26zm24.3 1.8v1.1l-11.3 6.7-11.3-6.7v-1.1h22.6zm-22.6 13.8v-10.7l11.3 6.8 11.3-6.8v10.7h-22.6z"></path></symbol>

	<symbol id="icon-twitter" viewBox="0 0 30 20"><path d="M20.6,1.8c1.2,0,2.3,0.5,3.1,1.3c1-0.2,1.9-0.5,2.7-1c-0.3,1-1,1.8-1.8,2.3c0.9-0.1,1.7-0.3,2.4-0.7
				c-0.6,0.8-1.3,1.6-2.1,2.2c0,0.2,0,0.4,0,0.5c0,5.6-4.2,12-12,12c-2.4,0-4.6-0.7-6.4-1.9c0.3,0,0.7,0.1,1,0.1c2,0,3.8-0.7,5.2-1.8
				c-1.8,0-3.4-1.2-3.9-2.9C9,12,9.2,12,9.5,12c0.4,0,0.8-0.1,1.1-0.1c-1.9-0.4-3.4-2.1-3.4-4.1c0,0,0,0,0-0.1C7.8,8,8.5,8.2,9.1,8.2
				C8,7.4,7.3,6.4,7.3,4.9c0-0.8,0.2-1.7,0.5-2.3C9.9,5.1,13,6.8,16.5,7c-0.1-0.3-0.1-0.6-0.1-1C16.4,3.7,18.3,1.8,20.6,1.8
				 M26.9,3.8L26.9,3.8 M27.8,0l-2.2,0.9c-0.5,0.3-1,0.5-1.6,0.7c-1-0.8-2.2-1.2-3.5-1.2c-2.9,0-5.2,2.2-5.6,5
				c-2.4-0.5-4.6-1.8-6.1-3.7L7.7,0.2l-1,1.7C6.1,2.7,5.9,3.7,5.9,4.7c0,0.2,0,0.4,0,0.6l-0.1,0v2.4v0.1c0,1.3,0.4,2.4,1.1,3.4
				l0.4,1.2c0.3,1.1,1,2,1.8,2.7c-0.6,0.2-1.2,0.2-1.8,0.2c-0.3,0-0.6,0-0.8,0l-6-0.7l5.1,3.3c2.2,1.4,4.6,2.1,7.2,2.1
				c3.9,0,7.4-1.6,9.9-4.4c2.1-2.4,3.4-5.7,3.4-8.9c0.7-0.6,1.3-1.3,1.9-2.1l1.7-3.1l-2.4,0.6L27.8,0L27.8,0z"></path></symbol>

				<symbol id="icon-blog" viewBox="0 0 30 20"><path d="M28.3 6.6l-1.4 1.2c-2.1-2.7-6.4-5.9-11.9-5.9-5.4 0-9.8 3.2-11.9 5.7l-1.4-1.2c2.4-3 7.3-6.4 13.3-6.4 6.2.1 11 3.7 13.3 6.6zm-13.3-2c-4.5 0-8.1 2.6-9.9 4.8l1.4 1.2c1.5-1.9 4.6-4.2 8.5-4.2 3.9 0 7 2.4 8.5 4.2l1.4-1.2c-1.7-2.1-5.3-4.8-9.9-4.8zm0 4.5c-2.9 0-5.3 1.5-6.5 3l1.4 1.2c.9-1.1 2.8-2.3 5.1-2.3s4.2 1.3 5 2.4l1.4-1.2c-1.1-1.5-3.4-3.1-6.4-3.1zm3.2 7.7c0 1.7-1.4 3.2-3.2 3.2s-3.2-1.4-3.2-3.2 1.4-3.2 3.2-3.2 3.2 1.4 3.2 3.2zm-1.8 0c0-.7-.6-1.4-1.4-1.4-.7 0-1.4.6-1.4 1.4s.6 1.4 1.4 1.4c.7 0 1.4-.7 1.4-1.4z"></path></symbol></svg>