<?xml version="1.0" encoding="utf-8"?>
<svg version="1.1" id="Layer_1" xmlns="http://www.w3.org/2000/svg" xmlns:xlink="http://www.w3.org/1999/xlink" x="0px" y="0px"
	 viewBox="0 0 198.5 89.4" style="enable-background:new 0 0 198.5 89.4;" xml:space="preserve">
<style type="text/css">
	.st0{fill:#ffffff;}
	.st1{fill:#ffffff;}
</style>
<g>
	<path class="st0" d="M109.4,61.6v16.3h9.8c1,1.1,2.2,1.9,3.7,2.5c1.5,0.6,3.3,0.8,5.4,0.8c2.6,0,4.8-0.4,6.4-1.2
		c1.6-0.8,2.7-1.9,3.4-3.2c0.7-1.3,1-3.5,1-6.7c-1.7,1.7-3.5,3-5.4,3.7c-1.9,0.8-4,1.1-6.4,1.1c-5.3,0-9.7-1.9-13.3-5.7
		C111.8,67,110.3,64.5,109.4,61.6z"/>
</g>
<g>
	<path class="st0" d="M171.3,47c-2,2.1-3.1,4.9-3.1,8.3c0,3.5,1,6.3,3.1,8.4c2,2.1,4.6,3.2,7.7,3.2c3,0,5.5-1.1,7.6-3.3
		c2.1-2.2,3.1-5,3.1-8.4c0-3.4-1-6.1-3-8.3c-2-2.1-4.6-3.2-7.6-3.2C175.9,43.8,173.3,44.9,171.3,47z"/>
</g>
<g>
	<path class="st0" d="M114.2,39.9c3.5-3.4,7.6-5.1,12.5-5.1c2.3,0,4.4,0.4,6.4,1.2c2,0.8,4,2.2,6,4.1v-4.3h9.8v33.6
		c0,6.6-1.3,11.5-4,14.6c-2.1,2.4-4.8,4.2-8,5.2h22V35.8h9.8v4.3c1.8-1.8,3.7-3.1,5.8-4c2.1-0.9,4.3-1.3,6.6-1.3
		c5.1,0,9.5,1.9,13,5.8c2,2.2,3.5,4.8,4.4,7.7V0.1h-89v47.8C110.4,44.8,112,42.1,114.2,39.9z"/>
</g>
<g>
	<path class="st0" d="M193.9,70.1c-3.7,3.9-8.1,5.9-13.1,5.9c-2.3,0-4.4-0.4-6.3-1.2c-1.9-0.8-3.9-2.1-5.8-3.9v18.3h29.8V62.3
		C197.5,65.2,196,67.8,193.9,70.1z"/>
</g>
<g>
	<path class="st0" d="M136.7,63c2-2,3-4.7,3-8c0-3.3-1-5.9-3-8c-2-2-4.6-3.1-7.7-3.1c-3.1,0-5.7,1-7.7,3.1c-2,2.1-3,4.7-3,7.8
		c0,3.3,1,5.9,3.1,8c2.1,2.1,4.7,3.1,7.8,3.1C132.2,66.1,134.7,65,136.7,63z"/>
</g>
<g>
	<path class="st0" d="M119.1,88.9c-2.6-1-4.8-2.4-6.6-4.2c-1.2-1.3-2.2-2.7-3-4.4v8.9h10.5C119.6,89.1,119.3,89,119.1,88.9z"/>
</g>
<path class="st0" d="M5.1,21.3H15v14.4h5.8v8.5H15V75H5.1V44.2h-5v-8.5h5V21.3z"/>
<path class="st0" d="M29.9,19.6c1.7,0,3.2,0.6,4.4,1.9c1.2,1.2,1.9,2.8,1.9,4.5c0,1.8-0.6,3.2-1.8,4.5c-1.2,1.2-2.7,1.9-4.4,1.9
	c-1.7,0-3.2-0.6-4.5-1.9c-1.2-1.3-1.8-2.8-1.8-4.6c0-1.7,0.6-3.2,1.8-4.4C26.7,20.2,28.2,19.6,29.9,19.6z M25,35.8h9.8V75H25V35.8z"
	/>
<path class="st0" d="M53.5,20.6v19.5c1.8-1.8,3.7-3.1,5.8-4c2.1-0.9,4.3-1.3,6.6-1.3c5.1,0,9.5,1.9,13,5.8c3.6,3.9,5.4,8.8,5.4,14.9
	c0,5.8-1.8,10.7-5.5,14.6S70.7,76,65.6,76c-2.3,0-4.4-0.4-6.3-1.2s-3.9-2.1-5.8-3.9V75h-9.8V20.6H53.5z M63.8,43.8
	c-3.1,0-5.7,1.1-7.7,3.2c-2,2.1-3.1,4.9-3.1,8.3c0,3.5,1,6.3,3.1,8.4c2,2.1,4.6,3.2,7.7,3.2c3,0,5.5-1.1,7.6-3.3
	c2.1-2.2,3.1-5,3.1-8.4c0-3.4-1-6.1-3-8.3S66.9,43.8,63.8,43.8z"/>
<path class="st0" d="M96.3,19.6c1.7,0,3.2,0.6,4.4,1.9c1.2,1.2,1.9,2.8,1.9,4.5c0,1.8-0.6,3.2-1.8,4.5c-1.2,1.2-2.7,1.9-4.4,1.9
	c-1.7,0-3.2-0.6-4.5-1.9S90,27.7,90,25.9c0-1.7,0.6-3.2,1.8-4.4C93.1,20.2,94.6,19.6,96.3,19.6z M91.4,35.8h9.8V75h-9.8V35.8z"/>
</svg>
